<svg width="59" height="57" viewBox="0 0 59 57" fill="none" xmlns="http://www.w3.org/2000/svg">
<path d="M24.8821 24.59L17.3952 17.1023L7.94455 26.5535L15.4313 34.0411L15.4265 34.046L23.5108 42.131L24.8816 43.4924L24.8864 43.4972L32.9706 35.4121L34.3317 34.0411L58.7539 9.61702L49.3036 0.165833L24.8821 24.59ZM30.2343 32.6751L28.8732 34.046L24.882 38.0375L24.8771 38.0328L20.8908 34.046L20.8956 34.0411L13.4088 26.5535L17.3951 22.5668L24.882 30.0544L49.3036 5.63023L53.29 9.61702L30.2343 32.6751Z" fill="#FF4C29"/>
<path d="M52.1582 52.1638H3.86357V3.86398H40.1111L43.9747 0H0V56.0278H56.0218V17.7616L52.1582 21.6256V52.1638Z" fill="#FF4C29"/>
</svg>
