<svg width="31" height="30" viewBox="0 0 31 30" fill="none" xmlns="http://www.w3.org/2000/svg">
<path fill-rule="evenodd" clip-rule="evenodd" d="M0.0179447 3.39937C0.0179447 2.76011 0.285207 2.14702 0.760938 1.69499C1.23667 1.24296 1.8819 0.989017 2.55468 0.989017H27.842C28.1754 0.988499 28.5057 1.05047 28.8138 1.17139C29.122 1.29231 29.4021 1.46979 29.6379 1.69368C29.8738 1.91757 30.0609 2.18347 30.1885 2.47616C30.3161 2.76884 30.3817 3.08257 30.3815 3.39937V27.4268C30.3819 27.7437 30.3165 28.0575 30.1891 28.3504C30.0617 28.6432 29.8747 28.9093 29.639 29.1334C29.4033 29.3575 29.1233 29.5353 28.8152 29.6565C28.5071 29.7777 28.1769 29.84 27.8434 29.8398H2.55468C2.22144 29.8398 1.89146 29.7774 1.5836 29.6562C1.27573 29.535 0.996026 29.3573 0.76045 29.1334C0.524874 28.9094 0.338048 28.6436 0.210646 28.351C0.0832443 28.0584 0.0177634 27.7448 0.0179447 27.4282V3.39937ZM12.0364 11.989H16.1479V13.9509C16.7414 12.8231 18.2595 11.8081 20.541 11.8081C24.9147 11.8081 25.9512 14.0545 25.9512 18.1762V25.8112H21.525V19.1152C21.525 16.7678 20.9315 15.4433 19.4244 15.4433C17.3335 15.4433 16.464 16.8714 16.464 19.1152V25.8112H12.0364V11.989ZM4.4455 25.6315H8.87306V11.8081H4.4455V25.6302V25.6315ZM9.50656 7.29947C9.51491 7.65968 9.44745 8.01784 9.30814 8.35294C9.16884 8.68804 8.9605 8.99333 8.69534 9.25088C8.43019 9.50844 8.11356 9.71307 7.76404 9.85278C7.41452 9.99249 7.03916 10.0645 6.65997 10.0645C6.28079 10.0645 5.90542 9.99249 5.55591 9.85278C5.20639 9.71307 4.88976 9.50844 4.62461 9.25088C4.35945 8.99333 4.15111 8.68804 4.0118 8.35294C3.8725 8.01784 3.80504 7.65968 3.81339 7.29947C3.82978 6.59244 4.13688 5.91961 4.66893 5.42507C5.20098 4.93054 5.91569 4.65362 6.65997 4.65362C7.40426 4.65362 8.11896 4.93054 8.65102 5.42507C9.18307 5.91961 9.49017 6.59244 9.50656 7.29947Z" fill="#FF4C29"/>
</svg>
