<svg width="37" height="35" viewBox="0 0 37 35" fill="none" xmlns="http://www.w3.org/2000/svg">
<path d="M34.7315 13.106H1.93519C0.866412 13.106 0 14.8479 0 16.9968V17.4063C0 19.5552 0.866412 21.2971 1.93519 21.2971H34.7315C35.8003 21.2971 36.6667 19.5552 36.6667 17.4063V16.9968C36.6667 14.8479 35.8003 13.106 34.7315 13.106Z" fill="#F3F3F3"/>
<path d="M34.7315 13.106H1.93519C0.866412 13.106 0 14.8479 0 16.9968V17.4063C0 19.5552 0.866412 21.2971 1.93519 21.2971H34.7315C35.8003 21.2971 36.6667 19.5552 36.6667 17.4063V16.9968C36.6667 14.8479 35.8003 13.106 34.7315 13.106Z" stroke="black"/>
<path d="M34.7315 26.2119H1.93519C0.866412 26.2119 0 27.9539 0 30.1027V30.5123C0 32.6611 0.866412 34.4031 1.93519 34.4031H34.7315C35.8003 34.4031 36.6667 32.6611 36.6667 30.5123V30.1027C36.6667 27.9539 35.8003 26.2119 34.7315 26.2119Z" fill="#F3F3F3"/>
<path d="M34.7315 26.2119H1.93519C0.866412 26.2119 0 27.9539 0 30.1027V30.5123C0 32.6611 0.866412 34.4031 1.93519 34.4031H34.7315C35.8003 34.4031 36.6667 32.6611 36.6667 30.5123V30.1027C36.6667 27.9539 35.8003 26.2119 34.7315 26.2119Z" stroke="black"/>
<path d="M34.7315 0H1.93519C0.866412 0 0 1.74198 0 3.89081V4.30037C0 6.44921 0.866412 8.19118 1.93519 8.19118H34.7315C35.8003 8.19118 36.6667 6.44921 36.6667 4.30037V3.89081C36.6667 1.74198 35.8003 0 34.7315 0Z" fill="#F3F3F3"/>
<path d="M34.7315 0H1.93519C0.866412 0 0 1.74198 0 3.89081V4.30037C0 6.44921 0.866412 8.19118 1.93519 8.19118H34.7315C35.8003 8.19118 36.6667 6.44921 36.6667 4.30037V3.89081C36.6667 1.74198 35.8003 0 34.7315 0Z" stroke="black"/>
</svg>
