<svg width="31" height="30" viewBox="0 0 31 30" fill="none" xmlns="http://www.w3.org/2000/svg">
<path d="M28.6877 0.989014H1.6759C1.23142 0.989014 0.805152 1.15678 0.49086 1.45542C0.176567 1.75405 0 2.15909 0 2.58142V28.2478C0.000111828 28.6701 0.176729 29.075 0.491009 29.3736C0.805289 29.6721 1.2315 29.8398 1.6759 29.8398H16.2179V18.6673H12.261V14.3133H16.2179V11.102C16.2179 7.37546 18.6133 5.34669 22.1118 5.34669C23.7877 5.34669 25.2279 5.4649 25.6479 5.51819V9.41265L23.2214 9.41385C21.3186 9.41385 20.9504 10.273 20.9504 11.5336V14.3137H25.4881L24.8973 18.6677H20.9504V29.8398H28.6881C29.1325 29.8397 29.5587 29.6719 29.8729 29.3733C30.1871 29.0746 30.3636 28.6697 30.3636 28.2474V2.58142C30.3636 2.15909 30.187 1.75405 29.8727 1.45542C29.5584 1.15678 29.1321 0.989014 28.6877 0.989014Z" fill="#FF4C29"/>
</svg>
