<svg width="31" height="31" viewBox="0 0 31 31" fill="none" xmlns="http://www.w3.org/2000/svg">
<path d="M27.6193 0.994141H3.76221C1.96615 0.994141 0.508972 2.42647 0.508972 4.19189V27.6421C0.508972 29.4075 1.96615 30.8398 3.76221 30.8398H27.6193C29.4154 30.8398 30.8725 29.4075 30.8725 27.6421V4.19189C30.8725 2.42647 29.4154 0.994141 27.6193 0.994141ZM19.3032 26.5562C18.7339 26.6561 18.5238 26.3097 18.5238 26.0232C18.5238 25.6634 18.5373 23.8247 18.5373 22.3391C18.5373 21.2998 18.1849 20.6403 17.7715 20.2939C20.2792 20.0207 22.9224 19.681 22.9224 15.424C22.9224 14.2115 22.4819 13.6053 21.7635 12.8258C21.8787 12.5393 22.265 11.3602 21.6482 9.82792C20.7062 9.54146 18.5509 11.0204 18.5509 11.0204C17.6563 10.7739 16.6871 10.6473 15.7314 10.6473C14.7758 10.6473 13.8066 10.7739 12.9119 11.0204C12.9119 11.0204 10.7567 9.54146 9.81459 9.82792C9.19783 11.3535 9.57738 12.5327 9.69937 12.8258C8.98095 13.6053 8.64207 14.2115 8.64207 15.424C8.64207 19.661 11.1701 20.0207 13.6778 20.2939C13.3525 20.5804 13.0611 21.0733 12.9594 21.7795C12.3155 22.066 10.6686 22.559 9.68582 20.8535C9.06906 19.8009 7.95753 19.7143 7.95753 19.7143C6.85957 19.701 7.88298 20.3938 7.88298 20.3938C8.61496 20.7269 9.13005 22.006 9.13005 22.006C9.78748 23.9846 12.9323 23.3184 12.9323 23.3184C12.9323 24.2444 12.9458 25.7501 12.9458 26.0232C12.9458 26.3097 12.7425 26.6561 12.1664 26.5562C7.69321 25.0839 4.56197 20.9001 4.56197 16.0102C4.56197 9.89454 9.31983 5.25114 15.5416 5.25114C21.7635 5.25114 26.806 9.89454 26.806 16.0102C26.8128 20.9001 23.7764 25.0905 19.3032 26.5562ZM12.6544 22.4857C12.5256 22.5123 12.4036 22.459 12.3901 22.3724C12.3765 22.2725 12.4646 22.1859 12.5934 22.1592C12.7222 22.1459 12.8442 22.1992 12.8577 22.2858C12.8781 22.3724 12.7899 22.459 12.6544 22.4857ZM12.0105 22.4257C12.0105 22.5123 11.9089 22.5856 11.7733 22.5856C11.6242 22.5989 11.5225 22.5257 11.5225 22.4257C11.5225 22.3391 11.6242 22.2658 11.7598 22.2658C11.8885 22.2525 12.0105 22.3258 12.0105 22.4257ZM11.082 22.3524C11.0549 22.439 10.9193 22.479 10.8041 22.439C10.6753 22.4124 10.5872 22.3125 10.6143 22.2259C10.6415 22.1393 10.777 22.0993 10.8922 22.1259C11.0278 22.1659 11.1159 22.2658 11.082 22.3524ZM10.2484 21.9927C10.1874 22.066 10.0586 22.0527 9.95692 21.9527C9.85526 21.8661 9.82815 21.7395 9.89592 21.6796C9.95692 21.6063 10.0857 21.6196 10.1874 21.7196C10.2755 21.8062 10.3094 21.9394 10.2484 21.9927ZM9.6316 21.3865C9.5706 21.4264 9.45538 21.3865 9.38083 21.2865C9.30627 21.1866 9.30627 21.0733 9.38083 21.0267C9.45538 20.9668 9.5706 21.0134 9.6316 21.1133C9.70615 21.2132 9.70615 21.3332 9.6316 21.3865ZM9.19105 20.7402C9.13006 20.8002 9.02839 20.7669 8.95384 20.7003C8.87928 20.6137 8.86573 20.5137 8.92673 20.4671C8.98773 20.4071 9.08939 20.4405 9.16394 20.5071C9.2385 20.5937 9.25205 20.6936 9.19105 20.7402ZM8.73696 20.2473C8.70985 20.3072 8.62174 20.3205 8.54718 20.2739C8.45907 20.2339 8.41841 20.1606 8.44552 20.1007C8.47263 20.0607 8.54718 20.0407 8.63529 20.074C8.7234 20.1207 8.76407 20.194 8.73696 20.2473Z" fill="#FF4C29"/>
</svg>
