<svg width="10" height="11" viewBox="0 0 10 11" fill="none" xmlns="http://www.w3.org/2000/svg">
<g clip-path="url(#clip0_22_733)">
<path d="M1.66669 9.23043L1.67085 7.56793L3.33335 7.5721L3.32919 9.23043H1.66669Z" fill="#FF4C29"/>
<path d="M3.32502 7.57627V9.22627H1.67502V7.57627H3.32502ZM3.33335 7.56793H1.66669V9.2346H3.33335V7.56793Z" fill="#FF4C29"/>
<path d="M3.33331 9.23043L3.33748 7.56793L4.99998 7.5721L4.99581 9.23043H3.33331Z" fill="#FF4C29"/>
<path d="M4.99165 7.57627V9.22627H3.34165V7.57627H4.99165ZM4.99998 7.56793H3.33331V9.2346H4.99998V7.56793Z" fill="#FF4C29"/>
<path d="M5 9.23043L5.00417 7.56793L6.66667 7.5721L6.6625 9.23043H5Z" fill="#FF4C29"/>
<path d="M6.65833 7.57627V9.22627H5.00833V7.57627H6.65833ZM6.66667 7.56793H5V9.2346H6.66667V7.56793Z" fill="#FF4C29"/>
<path d="M6.66669 9.23043L6.67085 7.56793L8.33335 7.5721L8.32919 9.23043H6.66669Z" fill="#FF4C29"/>
<path d="M8.32502 7.57627V9.22627H6.67502V7.57627H8.32502ZM8.33335 7.56793H6.66669V9.2346H8.33335V7.56793Z" fill="#FF4C29"/>
<path d="M1.66669 7.56374L1.67085 5.90125L3.33335 5.90541L3.32919 7.56374H1.66669Z" fill="#FF4C29"/>
<path d="M3.32502 5.90958V7.55958H1.67502V5.90958H3.32502ZM3.33335 5.90125H1.66669V7.56791H3.33335V5.90125Z" fill="#FF4C29"/>
<path d="M3.33331 7.56374L3.33748 5.90125L4.99998 5.90541L4.99581 7.56374H3.33331Z" fill="#FF4C29"/>
<path d="M4.99165 5.90958V7.55958H3.34165V5.90958H4.99165ZM4.99998 5.90125H3.33331V7.56791H4.99998V5.90125Z" fill="#FF4C29"/>
<path d="M5 7.56374L5.00417 5.90125L6.66667 5.90541L6.6625 7.56374H5Z" fill="#FF4C29"/>
<path d="M6.65833 5.90958V7.55958H5.00833V5.90958H6.65833ZM6.66667 5.90125H5V7.56791H6.66667V5.90125Z" fill="#FF4C29"/>
<path d="M3.33331 10.8971L3.33748 9.23456L4.99998 9.23873L4.99581 10.8971H3.33331Z" fill="#FF4C29"/>
<path d="M4.99165 9.24289V10.8929H3.34165V9.24289H4.99165ZM4.99998 9.23456H3.33331V10.9012H4.99998V9.23456Z" fill="#FF4C29"/>
<path d="M5 10.8971L5.00417 9.23456L6.66667 9.23873L6.6625 10.8971H5Z" fill="#FF4C29"/>
<path d="M6.65833 9.24289V10.8929H5.00833V9.24289H6.65833ZM6.66667 9.23456H5V10.9012H6.66667V9.23456Z" fill="#FF4C29"/>
<path d="M6.66669 7.56374L6.67085 5.90125L8.33335 5.90541L8.32919 7.56374H6.66669Z" fill="#FF4C29"/>
<path d="M8.32502 5.90958V7.55958H6.67502V5.90958H8.32502ZM8.33335 5.90125H6.66669V7.56791H8.33335V5.90125Z" fill="#FF4C29"/>
<path d="M1.66669 5.89706L1.67085 4.23456L3.33335 4.23872L3.32919 5.89706H1.66669Z" fill="#FF4C29"/>
<path d="M3.32502 4.24289V5.89289H1.67502V4.24289H3.32502ZM3.33335 4.23456H1.66669V5.90122H3.33335V4.23456Z" fill="#FF4C29"/>
<path d="M0 7.56374L0.00416667 5.90125L1.66667 5.90541L1.6625 7.56374H0Z" fill="#FF4C29"/>
<path d="M1.65833 5.90958V7.55958H0.00833333V5.90958H1.65833ZM1.66667 5.90125H0V7.56791H1.66667V5.90125Z" fill="#FF4C29"/>
<path d="M0 5.89706L0.00416667 4.23456L1.66667 4.23872L1.6625 5.89706H0Z" fill="#FF4C29"/>
<path d="M1.65833 4.24289V5.89289H0.00833333V4.24289H1.65833ZM1.66667 4.23456H0V5.90122H1.66667V4.23456Z" fill="#FF4C29"/>
<path d="M3.33331 5.89706L3.33748 4.23456L4.99998 4.23872L4.99581 5.89706H3.33331Z" fill="#FF4C29"/>
<path d="M4.99165 4.24289V5.89289H3.34165V4.24289H4.99165ZM4.99998 4.23456H3.33331V5.90122H4.99998V4.23456Z" fill="#FF4C29"/>
<path d="M5 5.89706L5.00417 4.23456L6.66667 4.23872L6.6625 5.89706H5Z" fill="#FF4C29"/>
<path d="M6.65833 4.24289V5.89289H5.00833V4.24289H6.65833ZM6.66667 4.23456H5V5.90122H6.66667V4.23456Z" fill="#FF4C29"/>
<path d="M6.66669 5.89706L6.67085 4.23456L8.33335 4.23872L8.32919 5.89706H6.66669Z" fill="#FF4C29"/>
<path d="M8.32502 4.24289V5.89289H6.67502V4.24289H8.32502ZM8.33335 4.23456H6.66669V5.90122H8.33335V4.23456Z" fill="#FF4C29"/>
<path d="M8.33331 7.56374L8.33748 5.90125L9.99998 5.90541L9.99581 7.56374H8.33331Z" fill="#FF4C29"/>
<path d="M9.99165 5.90958V7.55958H8.34165V5.90958H9.99165ZM9.99998 5.90125H8.33331V7.56791H9.99998V5.90125Z" fill="#FF4C29"/>
<path d="M8.33331 5.89706L8.33748 4.23456L9.99998 4.23872L9.99581 5.89706H8.33331Z" fill="#FF4C29"/>
<path d="M9.99165 4.24289V5.89289H8.34165V4.24289H9.99165ZM9.99998 4.23456H8.33331V5.90122H9.99998V4.23456Z" fill="#FF4C29"/>
<path d="M1.66669 4.23043L1.67085 2.56793L3.33335 2.5721L3.32919 4.23043H1.66669Z" fill="#FF4C29"/>
<path d="M3.32502 2.57627V4.22627H1.67502V2.57627H3.32502ZM3.33335 2.56793H1.66669V4.2346H3.33335V2.56793Z" fill="#FF4C29"/>
<path d="M3.33331 4.23043L3.33748 2.56793L4.99998 2.5721L4.99581 4.23043H3.33331Z" fill="#FF4C29"/>
<path d="M4.99165 2.57627V4.22627H3.34165V2.57627H4.99165ZM4.99998 2.56793H3.33331V4.2346H4.99998V2.56793Z" fill="#FF4C29"/>
<path d="M5 4.23043L5.00417 2.56793L6.66667 2.5721L6.6625 4.23043H5Z" fill="#FF4C29"/>
<path d="M6.65833 2.57627V4.22627H5.00833V2.57627H6.65833ZM6.66667 2.56793H5V4.2346H6.66667V2.56793Z" fill="#FF4C29"/>
<path d="M3.33331 2.56375L3.33748 0.901245L4.99998 0.905412L4.99581 2.56375H3.33331Z" fill="#FF4C29"/>
<path d="M4.99165 0.909578V2.55958H3.34165V0.909578H4.99165ZM4.99998 0.901245H3.33331V2.56791H4.99998V0.901245Z" fill="#FF4C29"/>
<path d="M5 2.56375L5.00417 0.901245L6.66667 0.905412L6.6625 2.56375H5Z" fill="#FF4C29"/>
<path d="M6.65833 0.909578V2.55958H5.00833V0.909578H6.65833ZM6.66667 0.901245H5V2.56791H6.66667V0.901245Z" fill="#FF4C29"/>
<path d="M6.66669 4.23043L6.67085 2.56793L8.33335 2.5721L8.32919 4.23043H6.66669Z" fill="#FF4C29"/>
<path d="M8.32502 2.57627V4.22627H6.67502V2.57627H8.32502ZM8.33335 2.56793H6.66669V4.2346H8.33335V2.56793Z" fill="#FF4C29"/>
</g>
<defs>
<clipPath id="clip0_22_733">
<rect width="10" height="10" fill="white" transform="translate(0 0.901245)"/>
</clipPath>
</defs>
</svg>
