<svg xmlns="http://www.w3.org/2000/svg" viewBox="0 0 459.39 258.06"><defs><style>.cls-1{fill:#30332e;}.cls-2{fill:#ff4c29;}</style></defs><g id="Layer_2" data-name="Layer 2"><g id="Layer_1-2" data-name="Layer 1"><path class="cls-1" d="M277.91,75.34,252.5,26.68a129.88,129.88,0,0,0-22.8,22.51A129,129,0,0,0,0,115.66H54a75.56,75.56,0,0,1,148.73,0h54A75.39,75.39,0,0,1,277.91,75.34Z"/><path class="cls-2" d="M331.05,0a128.51,128.51,0,0,0-55.72,12.65l24.78,47.44a75.56,75.56,0,0,1,105.3,55.57h54A129,129,0,0,0,331.05,0Z"/><path class="cls-2" d="M150.09,142.39V181.6h32.5A75.53,75.53,0,0,1,54,142.39H0A129,129,0,0,0,217.81,222v27.33H257V142.39Z"/><path class="cls-1" d="M405.41,142.4a75.51,75.51,0,0,1-121.65,45.52v61.15A129,129,0,0,0,459.39,142.4Z"/></g></g></svg>